HIERARCHY
ROOT Hips
{
	OFFSET 0.000000 0.000000 0.000000
	CHANNELS 6 Xposition Yposition Zposition Xrotation Yrotation Zrotation
	JOINT LeftUpLeg_virtual
	{
		OFFSET 0.000000 0.000000 0.000000
		CHANNELS 3 Xrotation Yrotation Zrotation
		JOINT LeftUpLeg
		{
			OFFSET 15.427100 -6.655098 0.678600
			CHANNELS 3 Xrotation Yrotation Zrotation
			JOINT LeftLeg
			{
				OFFSET 4.081073 -39.591068 13.024000
				CHANNELS 3 Xrotation Yrotation Zrotation
				JOINT LeftFoot
				{
					OFFSET -4.081074 -37.707932 -15.979700
					CHANNELS 3 Xrotation Yrotation Zrotation
					JOINT LeftToeBase
					{
						OFFSET 5.346399 -15.068900 20.645000
						CHANNELS 3 Xrotation Yrotation Zrotation
						JOINT LeftToe_End
						{
							OFFSET 2.754700 0.931300 11.300900
							CHANNELS 3 Xrotation Yrotation Zrotation
							End Site
							{
								OFFSET 0 0 0
							}
						}
					}
				}
			}
		}
	}
	JOINT RightUpLeg_virtual
	{
		OFFSET 0.000000 0.000000 0.000000
		CHANNELS 3 Xrotation Yrotation Zrotation
		JOINT RightUpLeg
		{
			OFFSET -15.569500 -6.655098 0.678600
			CHANNELS 3 Xrotation Yrotation Zrotation
			JOINT RightLeg
			{
				OFFSET -4.081825 -39.591045 13.023800
				CHANNELS 3 Xrotation Yrotation Zrotation
				JOINT RightFoot
				{
					OFFSET 4.081824 -37.707954 -15.979600
					CHANNELS 3 Xrotation Yrotation Zrotation
					JOINT RightToeBase
					{
						OFFSET -5.346400 -15.068900 20.645000
						CHANNELS 3 Xrotation Yrotation Zrotation
						JOINT RightToe_End
						{
							OFFSET -2.754700 0.931300 11.300900
							CHANNELS 3 Xrotation Yrotation Zrotation
							End Site
							{
								OFFSET 0 0 0
							}
						}
					}
				}
			}
		}
	}
	JOINT Spine_virtual
	{
		OFFSET 0.000000 0.000000 0.000000
		CHANNELS 3 Xrotation Yrotation Zrotation
		JOINT Spine
		{
			OFFSET -0.279200 12.230698 -2.892100
			CHANNELS 3 Xrotation Yrotation Zrotation
			JOINT Spine1
			{
				OFFSET -0.232667 10.192268 -1.242267
				CHANNELS 3 Xrotation Yrotation Zrotation
				JOINT Spine1_split
				{
					OFFSET -0.232667 10.192268 -1.242267
					CHANNELS 3 Xrotation Yrotation Zrotation
					JOINT Spine2
					{
						OFFSET -0.232667 10.192268 -1.242267
						CHANNELS 3 Xrotation Yrotation Zrotation
						JOINT Neck_virtual
						{
							OFFSET 0.000000 0.000000 0.000000
							CHANNELS 3 Xrotation Yrotation Zrotation
							JOINT Neck
							{
								OFFSET -0.418800 17.814194 8.416900
								CHANNELS 3 Xrotation Yrotation Zrotation
								JOINT Head
								{
									OFFSET 0.000000 7.031097 3.806800
									CHANNELS 3 Xrotation Yrotation Zrotation
									JOINT HeadTop_End
									{
										OFFSET 0.000000 24.646606 12.978600
										CHANNELS 3 Xrotation Yrotation Zrotation
										End Site
										{
											OFFSET 0 0 0
										}
									}
								}
							}
						}
						JOINT LeftShoulder_virtual
						{
							OFFSET 0.000000 0.000000 0.000000
							CHANNELS 3 Xrotation Yrotation Zrotation
							JOINT LeftShoulder
							{
								OFFSET 8.476499 7.247704 -3.868750
								CHANNELS 3 Xrotation Yrotation Zrotation
								JOINT LeftShoulder_split
								{
									OFFSET 8.476499 7.247704 -3.868750
									CHANNELS 3 Xrotation Yrotation Zrotation
									JOINT LeftArm
									{
										OFFSET 9.308998 -2.777710 0.208600
										CHANNELS 3 Xrotation Yrotation Zrotation
										JOINT LeftForeArm
										{
											OFFSET 29.972298 0.000000 0.000000
											CHANNELS 3 Xrotation Yrotation Zrotation
											JOINT LeftHand
											{
												OFFSET 26.026505 0.000000 0.000000
												CHANNELS 3 Xrotation Yrotation Zrotation
												End Site
												{
													OFFSET 0 0 0
												}
											}
										}
									}
								}
							}
						}
						JOINT RightShoulder_virtual
						{
							OFFSET 0.000000 0.000000 0.000000
							CHANNELS 3 Xrotation Yrotation Zrotation
							JOINT RightShoulder
							{
								OFFSET -7.570500 7.247704 -3.868750
								CHANNELS 3 Xrotation Yrotation Zrotation
								JOINT RightShoulder_split
								{
									OFFSET -7.570500 7.247704 -3.868750
									CHANNELS 3 Xrotation Yrotation Zrotation
									JOINT RightArm
									{
										OFFSET -9.308998 -2.777710 0.208500
										CHANNELS 3 Xrotation Yrotation Zrotation
										JOINT RightForeArm
										{
											OFFSET -29.972300 0.000000 0.000000
											CHANNELS 3 Xrotation Yrotation Zrotation
											JOINT RightHand
											{
												OFFSET -26.026505 0.000000 0.000000
												CHANNELS 3 Xrotation Yrotation Zrotation
												End Site
												{
													OFFSET 0 0 0
												}
											}
										}
									}
								}
							}
						}
					}
				}
			}
		}
	}
}
MOTION
Frames: 6
Frame Time: 0.03333333
2.892662 93.371841 2.103363 0.000000 0.000000 0.000000 -5.335427 -7.819044 5.510466 -25.809823 6.972926 11.664338 20.443538 9.005387 0.925836 29.983806 8.204710 0.682183 -8.178362 0.160920 -4.420770 0.000000 0.000000 0.000000 -5.335427 -7.819044 5.510466 -6.131505 -7.840656 14.375393 19.021706 -10.220801 -0.955212 -11.072771 -14.038967 -20.435523 -3.611933 0.000004 0.000004 0.000000 0.000000 0.000000 -5.335427 -7.819044 5.510466 0.563075 1.087667 -2.712773 0.947294 2.037201 -4.377106 0.000000 0.000000 0.000000 0.000000 0.000000 0.000000 0.968934 2.043659 -4.365419 2.884317 1.135687 4.005908 7.888285 9.350193 8.465891 0.000000 0.000000 0.000000 0.968934 2.043659 -4.365419 1.058070 -0.340529 -4.891288 0.000000 0.000000 0.000000 -16.372109 12.814412 -32.934028 0.000012 -24.507086 0.000016 0.000000 0.000000 0.000000 0.968934 2.043659 -4.365419 0.199127 -5.464828 5.846318 0.000000 0.000000 0.000000 -40.201213 28.677461 7.199772 -0.000014 4.457084 -0.000003 0.000000 0.000000 0.000000 
2.398407 93.195343 4.591602 0.000000 0.000000 0.000000 -5.635389 -13.643354 6.642912 -28.950317 7.175734 8.161518 21.929560 9.105660 0.846225 30.858603 6.087775 -4.100362 -1.953725 -0.000005 0.000006 0.000000 0.000000 0.000000 -5.635389 -13.643354 6.642912 -3.928454 -7.345407 12.983205 21.554566 -10.009280 -0.834471 -13.227101 -11.183899 -17.633855 -4.090871 0.000003 -0.000003 0.000000 0.000000 0.000000 -5.635389 -13.643354 6.642912 0.820606 1.488987 -3.368683 1.350767 2.961714 -4.730876 0.000000 0.000000 0.000000 0.000000 0.000000 0.000000 1.379869 2.974012 -4.712206 2.584065 1.463158 3.751659 7.038279 10.697007 8.064930 0.000000 0.000000 0.000000 1.379869 2.974012 -4.712206 0.757069 0.956893 -2.838909 0.000000 0.000000 0.000000 -19.446295 10.332250 -26.706622 0.000007 -27.039606 0.000004 0.000000 0.000000 0.000000 1.379869 2.974012 -4.712206 0.212557 -5.231000 5.754125 0.000000 0.000000 0.000000 -42.739496 34.146520 8.566000 -0.000001 4.063301 -0.000002 0.000000 0.000000 0.000000 
1.583662 92.991516 6.863400 0.000000 0.000000 0.000000 -6.008666 -19.214719 7.335128 -31.844808 8.013274 4.146539 23.337214 9.475527 0.897077 32.681994 5.597918 -8.563240 -0.420309 -0.000001 -0.000000 0.000000 0.000000 0.000000 -6.008666 -19.214719 7.335128 -1.505460 -7.102624 11.744051 23.797764 -9.787999 -0.689496 -15.023534 -8.768507 -14.849164 -4.488567 0.000010 -0.000002 0.000000 0.000000 0.000000 -6.008666 -19.214719 7.335128 1.094353 1.975642 -3.910340 1.780583 4.029425 -4.976538 0.000000 0.000000 0.000000 0.000000 0.000000 0.000000 1.816225 4.047995 -4.948807 2.395714 1.711543 3.497552 6.360600 11.646651 7.705534 0.000000 0.000000 0.000000 1.816225 4.047995 -4.948807 0.374557 2.240370 -0.806797 0.000000 0.000000 0.000000 -21.745724 7.692719 -20.829159 0.000001 -27.338010 0.000006 0.000000 0.000000 0.000000 1.816225 4.047995 -4.948807 0.214940 -5.027856 5.548213 0.000000 0.000000 0.000000 -45.098178 39.487721 9.681367 0.000007 3.811696 0.000002 0.000000 0.000000 0.000000 
0.033631 92.951920 8.634155 0.000000 0.000000 0.000000 -6.520870 -23.963613 6.911205 -34.577290 10.014943 -0.711397 24.655590 10.185214 1.240020 36.217546 9.460198 -12.187644 -0.029480 -0.000001 0.000004 0.000000 0.000000 0.000000 -6.520870 -23.963613 6.911205 1.821344 -7.709668 11.792526 24.256240 -9.620528 -0.572356 -14.811117 -7.172448 -12.936779 -9.081391 0.116731 -2.146117 0.000000 0.000000 0.000000 -6.520870 -23.963613 6.911205 1.415200 2.699955 -4.240517 2.289847 5.521901 -4.928586 0.000000 0.000000 0.000000 0.000000 0.000000 0.000000 2.330437 5.547311 -4.886229 2.482272 1.738869 3.187904 6.185648 11.407026 7.456862 0.000000 0.000000 0.000000 2.330437 5.547311 -4.886229 -0.055453 3.475714 1.151963 0.000000 0.000000 0.000000 -23.299824 5.427549 -15.271065 0.000013 -25.057490 0.000004 0.000000 0.000000 0.000000 2.330437 5.547311 -4.886229 0.202356 -4.899202 5.112886 0.000000 0.000000 0.000000 -46.554856 44.438686 9.552654 -0.000009 4.022038 -0.000009 0.000000 0.000000 0.000000 
-1.480979 92.471451 9.823219 0.000000 0.000000 0.000000 -6.738054 -27.952175 6.200821 -34.562028 12.975052 -6.741284 26.438696 10.902321 1.797942 39.404318 16.150348 -14.323467 -13.199222 -2.073979 8.771530 0.000000 0.000000 0.000000 -6.738054 -27.952175 6.200821 4.499197 -8.697003 12.530156 24.592229 -9.370514 -0.731781 -14.758497 -5.853933 -12.934649 -12.832997 0.198454 -2.784929 0.000000 0.000000 0.000000 -6.738054 -27.952175 6.200821 1.483081 3.325890 -4.005432 2.346481 6.742621 -4.450813 0.000000 0.000000 0.000000 0.000000 0.000000 0.000000 2.378277 6.772463 -4.396689 2.934395 1.811404 2.740240 6.084958 11.244284 6.855535 0.000000 0.000000 0.000000 2.378277 6.772463 -4.396689 -0.322191 4.618098 2.850651 0.000000 0.000000 0.000000 -24.664802 6.113082 -10.966438 0.000001 -16.100165 -0.000002 0.000000 0.000000 0.000000 2.378277 6.772463 -4.396689 0.161807 -4.855033 4.209505 0.000000 0.000000 0.000000 -46.379389 48.797105 7.972098 -0.000002 4.644558 -0.000005 0.000000 0.000000 0.000000 
-3.275934 91.658073 10.860069 0.000000 0.000000 0.000000 -6.640962 -30.942891 5.391832 -32.934100 14.699441 -12.820200 27.360394 11.553152 2.413241 41.296475 23.298308 -13.693927 -27.573281 -3.954356 9.322497 0.000000 0.000000 0.000000 -6.640962 -30.942891 5.391832 7.088518 -9.482265 14.023434 24.462734 -9.262834 -1.032864 -15.340426 -4.041640 -14.143245 -14.711001 0.131360 -2.262592 0.000000 0.000000 0.000000 -6.640962 -30.942891 5.391832 1.294189 3.822220 -3.542800 1.978881 7.541615 -3.799290 0.000000 0.000000 0.000000 0.000000 0.000000 0.000000 1.995281 7.569952 -3.744544 3.545182 1.890666 2.253027 6.036935 11.098032 6.130332 0.000000 0.000000 0.000000 1.995281 7.569952 -3.744544 -0.515999 5.442540 4.132380 0.000000 0.000000 0.000000 -24.874130 9.020697 -6.868903 0.000000 -13.881334 0.000002 0.000000 0.000000 0.000000 1.995281 7.569952 -3.744544 0.138524 -4.604023 3.421418 0.000000 0.000000 0.000000 -46.417460 52.440277 6.522583 -0.000000 4.776256 0.000006 0.000000 0.000000 0.000000 
